<?xml version="1.0" encoding="utf-8"?><svg xmlns="http://www.w3.org/2000/svg" xmlns:xlink="http://www.w3.org/1999/xlink"><symbol viewBox="0 0 32 32" id="arrow-right" xmlns="http://www.w3.org/2000/svg"><g data-name="Слой 2"><g data-name="Слой 1"><path data-name="8qcsa" d="M16 32a16 16 0 1 1 16-16 16 16 0 0 1-16 16zm0-30a14 14 0 1 0 14 14A14 14 0 0 0 16 2zm.88 20.54a1 1 0 0 1-1.42-1.42L19.59 17H9a1 1 0 0 1 0-2h10.59l-4.13-4.12a1 1 0 0 1 1.42-1.42l5.66 5.66a1 1 0 0 1 .26.88 1 1 0 0 1-.26.88z"/></g></g></symbol><symbol viewBox="0 0 344.96 344.96" id="check" xmlns="http://www.w3.org/2000/svg"><g data-name="Слой 2"><path d="M321.85 86.24l-40-23.11-23.1-40H212.5L172.48 0l-40 23.11H86.24l-23.11 40-40 23.1v46.21L0 172.48l23.11 40v46.21l40 23.11 23.11 40h46.21l40 23.1 40-23.11h46.21l23.11-40 40-23.11V212.5l23.11-40-23.11-40V86.24zM156.91 243.07a16.79 16.79 0 0 1-23.34 0l-50.45-50.44a16.19 16.19 0 0 1 0-22.89l13.35-13.35a16.19 16.19 0 0 1 22.89 0l25.87 25.87 80.34-80.35a16.19 16.19 0 0 1 22.89 0l13.35 13.35a16.19 16.19 0 0 1 0 22.89z" data-name="Capa 1"/></g></symbol><symbol viewBox="0 0 5 8" id="chevron-left" xmlns="http://www.w3.org/2000/svg"><defs><path id="ca" d="M1515.31 651.989l-1.3-1.3 2.69-2.69-2.69-2.688 1.3-1.301 3.679 3.678-.311.311.311.311z"/></defs><use xlink:href="#ca" transform="translate(-1514 -644)"/></symbol><symbol viewBox="0 0 11 20" id="chevron-right" xmlns="http://www.w3.org/2000/svg"><defs><path id="da" d="M1211.683 687.99l-8.75 8.681a1.15 1.15 0 0 1-1.616 0 1.128 1.128 0 0 1 0-1.603l8.138-8.075-8.138-8.075a1.128 1.128 0 0 1 0-1.604 1.15 1.15 0 0 1 1.616 0l8.75 8.682c.275.272.36.645.297.997.063.352-.022.724-.297.996z"/></defs><use xlink:href="#da" transform="translate(-1201 -677)"/></symbol><symbol viewBox="0 0 32 32" id="close" xmlns="http://www.w3.org/2000/svg"><defs><path id="ea" d="M1057 46c-8.837 0-16-7.163-16-16 0-8.836 7.163-16 16-16s16 7.164 16 16c0 8.837-7.163 16-16 16zm0-30c-7.732 0-14 6.268-14 14s6.268 14 14 14 14-6.268 14-14-6.268-14-14-14zm1.42 14.006l4.237 4.237a1 1 0 1 1-1.414 1.414l-4.237-4.237-4.266 4.266a1.008 1.008 0 0 1-1.426-1.426l4.266-4.265-4.237-4.238a1 1 0 1 1 1.414-1.414l4.237 4.237 4.298-4.297a1.008 1.008 0 0 1 1.425 1.425z"/></defs><use xlink:href="#ea" transform="translate(-1041 -14)"/></symbol><symbol class="fsvg-inline--fa ffa-facebook-f ffa-w-9" viewBox="0 0 264 512" id="facebook" xmlns="http://www.w3.org/2000/svg"><path d="M215.8 85H264V3.6C255.7 2.5 227.1 0 193.8 0 124.3 0 76.7 42.4 76.7 120.3V192H0v91h76.7v229h94V283h73.6l11.7-91h-85.3v-62.7c0-26.3 7.3-44.3 45.1-44.3z"/></symbol><symbol viewBox="0 0 113.386 113.386" id="instagram" xmlns="http://www.w3.org/2000/svg"><defs><path id="ga" d="M0 0h113.386v113.386H0z"/></defs><clipPath id="gb"><use xlink:href="#ga" overflow="visible"/></clipPath><path d="M100.136 47.884h-9.854c.718 2.787 1.142 5.699 1.142 8.71 0 19.238-15.592 34.83-34.827 34.83-19.234 0-34.827-15.592-34.827-34.83 0-3.011.426-5.923 1.144-8.71h-9.855v47.893c0 2.401 1.95 4.35 4.358 4.35h78.361a4.354 4.354 0 0 0 4.358-4.35V47.884zm0-30.473a4.355 4.355 0 0 0-4.358-4.353H82.72a4.354 4.354 0 0 0-4.354 4.353v13.063a4.353 4.353 0 0 0 4.354 4.353h13.058a4.355 4.355 0 0 0 4.358-4.353V17.411zm-43.54 17.416c-12.023 0-21.768 9.744-21.768 21.767 0 12.021 9.745 21.77 21.768 21.77s21.77-9.749 21.77-21.77c0-12.023-9.747-21.767-21.77-21.767m43.54 78.365H13.058C5.847 113.192 0 107.343 0 100.126V13.058C0 5.846 5.847 0 13.058 0h87.078c7.212 0 13.058 5.846 13.058 13.058v87.068c-.001 7.217-5.846 13.066-13.058 13.066" clip-path="url(#gb)" fill-rule="evenodd" clip-rule="evenodd"/></symbol><symbol viewBox="0 0 23 24" id="lamp" xmlns="http://www.w3.org/2000/svg"><defs><path id="ha" d="M62.733 21.75A.76.76 0 0 1 63.5 21c.423 0 .767.336.767.75s-.344.75-.767.75a.758.758 0 0 1-.767-.75m11.5 9.75c.424 0 .767.336.767.75s-.343.75-.767.75a.758.758 0 0 1-.766-.75c0-.414.343-.75.766-.75m-21.466 0c.423 0 .766.336.766.75s-.343.75-.766.75a.759.759 0 0 1-.767-.75c0-.414.343-.75.767-.75m17.78-7.205a.779.779 0 0 1 1.085 0c.3.293.3.768 0 1.06a.779.779 0 0 1-1.084 0 .739.739 0 0 1 0-1.06m-15.18 14.85a.779.779 0 0 1 1.084 0c.3.292.3.767 0 1.06a.778.778 0 0 1-1.084 0 .738.738 0 0 1 0-1.06m0-13.79a.738.738 0 0 1 0-1.06.779.779 0 0 1 1.084 0c.3.293.3.768 0 1.06a.778.778 0 0 1-1.084 0m15.18 14.85a.738.738 0 0 1 0-1.06.779.779 0 0 1 1.084 0c.3.292.3.767 0 1.06a.779.779 0 0 1-1.084 0M70.4 32.25c0 2.34-1.218 4.402-3.067 5.613v4.167c0 1.64-1.359 2.97-3.036 2.97h-1.594c-1.677 0-3.036-1.33-3.036-2.97v-4.167c-1.936-1.268-3.18-3.468-3.059-5.944.17-3.49 3.102-6.307 6.672-6.416a8.07 8.07 0 0 1 .22-.003c3.811 0 6.9 3.022 6.9 6.75zM65.8 42h-4.6v.03c0 .81.674 1.47 1.503 1.47h1.594c.829 0 1.503-.66 1.503-1.47zm3.067-9.75c0-2.895-2.408-5.25-5.367-5.25-.057 0-.115 0-.172.003-2.777.084-5.056 2.275-5.188 4.987-.091 1.861.798 3.59 2.38 4.626l.68.446V40.5h4.6v-3.438l.68-.446c1.495-.978 2.387-2.61 2.387-4.366z"/></defs><use xlink:href="#ha" transform="translate(-52 -21)"/></symbol><symbol viewBox="0 0 10 14" id="mark" xmlns="http://www.w3.org/2000/svg"><defs><path id="ia" d="M950 64c2.761 0 5 2.35 5 5.25 0 5.195-5 8.75-5 8.75s-5-3.555-5-8.75c0-2.9 2.238-5.25 5-5.25zm-1.667 6.125c0 .966.746 1.75 1.667 1.75.92 0 1.667-.784 1.667-1.75 0-.967-.747-1.75-1.667-1.75s-1.667.783-1.667 1.75z"/></defs><use xlink:href="#ia" transform="translate(-945 -64)"/></symbol><symbol viewBox="0 0 19 20" id="tel" xmlns="http://www.w3.org/2000/svg"><defs><path id="ja" d="M1126 56.355c-5.524-1.375-8.938-4.875-10.313-10.312-.534-2.111.016-4.116 1.217-5.787 1.015-1.608 2.951-3.577 3.49-1.87.668 2.122 1.037 2.526 1.472 4.523.27 1.243-1.596 2.043-2.912 2.11.016.323.072.65.17.98 1.075 3.583 3.079 4.9 6.876 6.876.34.177.68.287 1.02.337.039-1.32.845-3.269 2.114-2.993 1.018.222 1.532.427 2.074.663l.03-.043.005.058c.51.223 1.053.475 2.07.795 1.811.571-.172 2.716-1.816 3.665a2.833 2.833 0 0 1-.23.12c-1.559.954-3.37 1.35-5.267.878z"/></defs><use xlink:href="#ja" transform="translate(-1115 -37)"/></symbol></svg>