<svg xmlns="http://www.w3.org/2000/svg" xmlns:xlink="http://www.w3.org/1999/xlink" width="90" height="79" viewBox="0 0 90 79"><defs><path id="td7fa" d="M349.57 327.6h-77.13c-3.551 0-6.43-2.82-6.43-6.301v-10.426h4.286v8.326c0 2.32 1.92 4.2 4.286 4.2h72.845c2.367 0 4.286-1.88 4.286-4.2v-54.607c0-2.32-1.919-4.2-4.286-4.2H336.72v-4.2h12.851c3.55 0 6.429 2.82 6.429 6.3V321.3c0 3.48-2.879 6.3-6.429 6.3zm-12.976-32.738c2.4 0 4.346 1.927 4.346 4.303 0 2.377-1.946 4.303-4.346 4.303-2.401 0-4.347-1.926-4.347-4.303 0-2.376 1.946-4.303 4.347-4.303zm0-12.661c2.4 0 4.346 1.927 4.346 4.303s-1.946 4.303-4.346 4.303c-2.401 0-4.347-1.927-4.347-4.303s1.946-4.303 4.347-4.303zm4.346-8.359c0 2.377-1.946 4.303-4.346 4.303-2.401 0-4.347-1.926-4.347-4.303 0-2.376 1.946-4.302 4.347-4.302 2.4 0 4.346 1.926 4.346 4.302zm-8.505-8.656c-1.183 0-2.142-.94-2.142-2.1v-11.689c0-1.16.959-2.1 2.142-2.1 1.183 0 2.142.94 2.142 2.1v11.689c0 1.16-.959 2.1-2.142 2.1zm-8.789 4.354c2.4 0 4.346 1.926 4.346 4.302 0 2.377-1.946 4.303-4.346 4.303-2.4 0-4.346-1.926-4.346-4.303 0-2.376 1.945-4.302 4.346-4.302zm0 25.322c2.4 0 4.346 1.927 4.346 4.303 0 2.377-1.946 4.303-4.346 4.303-2.4 0-4.346-1.926-4.346-4.303 0-2.376 1.945-4.303 4.346-4.303zm0-12.661c2.4 0 4.346 1.927 4.346 4.303s-1.946 4.303-4.346 4.303c-2.4 0-4.346-1.927-4.346-4.303s1.945-4.303 4.346-4.303zm-6.254-26.01h10.758v4.2h-10.758zm-4.238 8.995c-1.183 0-2.142-.94-2.142-2.1v-11.689c0-1.16.96-2.1 2.142-2.1 1.183 0 2.143.94 2.143 2.1v11.689c0 1.16-.96 2.1-2.143 2.1zm-2.298 17.015c2.4 0 4.347 1.927 4.347 4.303s-1.946 4.303-4.347 4.303c-2.4 0-4.346-1.927-4.346-4.303s1.946-4.303 4.346-4.303zm0 25.198c2.4 0 4.347 1.927 4.347 4.303 0 2.377-1.946 4.303-4.347 4.303-2.4 0-4.346-1.926-4.346-4.303 0-2.376 1.946-4.303 4.346-4.303zm0-12.537c2.4 0 4.347 1.927 4.347 4.303 0 2.377-1.946 4.303-4.347 4.303-2.4 0-4.346-1.926-4.346-4.303 0-2.376 1.946-4.303 4.346-4.303zm4.347-21.02c0 2.377-1.946 4.303-4.347 4.303-2.4 0-4.346-1.926-4.346-4.303 0-2.376 1.946-4.302 4.346-4.302 2.4 0 4.347 1.926 4.347 4.302zm-19.234-17.65h12.854v4.2h-12.854zm2.098 26.009c2.4 0 4.346 1.927 4.346 4.303s-1.946 4.303-4.346 4.303c-2.4 0-4.347-1.927-4.347-4.303s1.946-4.303 4.347-4.303zm0 25.198c2.4 0 4.346 1.927 4.346 4.303 0 2.377-1.946 4.303-4.346 4.303-2.4 0-4.347-1.926-4.347-4.303 0-2.376 1.946-4.303 4.347-4.303zm0-12.537c2.4 0 4.346 1.927 4.346 4.303 0 2.377-1.946 4.303-4.346 4.303-2.4 0-4.347-1.926-4.347-4.303 0-2.376 1.946-4.303 4.347-4.303zm4.346-21.02c0 2.377-1.946 4.303-4.346 4.303-2.4 0-4.347-1.926-4.347-4.303 0-2.376 1.946-4.302 4.347-4.302 2.4 0 4.346 1.926 4.346 4.302zm-10.681-8.656c-1.183 0-2.143-.94-2.143-2.1v-11.689c0-1.16.96-2.1 2.143-2.1 1.183 0 2.142.94 2.142 2.1v11.689c0 1.16-.96 2.1-2.142 2.1zm-6.455 42.214c2.4 0 4.347 1.926 4.347 4.302 0 2.377-1.947 4.303-4.347 4.303-2.4 0-4.346-1.926-4.346-4.303 0-2.376 1.946-4.303 4.346-4.303zm0-12.538c2.4 0 4.347 1.927 4.347 4.303 0 2.377-1.947 4.303-4.347 4.303-2.4 0-4.346-1.926-4.346-4.303 0-2.376 1.946-4.303 4.346-4.303zm0-4.055c-2.4 0-4.346-1.927-4.346-4.303s1.946-4.303 4.346-4.303c2.4 0 4.347 1.927 4.347 4.303s-1.947 4.303-4.347 4.303zm-14.98-26.215v46.176h-4.286v-48.276c0-3.48 2.878-6.3 6.428-6.3H287.4v4.2h-12.818c-2.367 0-4.286 1.88-4.286 4.2z"/></defs><g><g transform="translate(-266 -249)"><use fill="#cd6994" xlink:href="#td7fa"/></g></g></svg>